<?xml version="1.0" encoding="UTF-8" standalone="no"?>
<svg
   xmlns:svg="http://www.w3.org/2000/svg"
   xmlns="http://www.w3.org/2000/svg"
   viewBox="0 0 41.262817 41.399403"
   version="1.1"
   id="svg4"
   width="41.262817"
   height="41.399403"
   >

  <path
     style="stroke: #1d2d32; stroke-width:.5"
     d="M 18.494393,41.318172 C 13.269081,40.764935 8.175108,38.054691 4.817636,34.041464 4.394847,33.5361 3.981931,32.994206 3.900046,32.837257 c -0.202768,-0.388644 -0.19156,-1.196204 0.02161,-1.557073 0.378532,-0.640803 -0.244841,-0.602215 9.728497,-0.602215 5.817208,0 9.090643,0.03399 9.205743,0.09559 0.09824,0.05257 0.331852,0.414192 0.519147,0.803594 0.675116,1.403622 1.784095,2.100348 3.364054,2.113498 1.751334,0.01458 3.014132,-0.800102 3.606949,-2.326977 0.300738,-0.774589 0.302259,-2.146707 0.0032,-2.905307 -0.603908,-1.531994 -1.85988,-2.341545 -3.610169,-2.326977 -1.579959,0.01315 -2.688938,0.709876 -3.364054,2.113498 -0.187295,0.389402 -0.420911,0.751019 -0.519147,0.803594 -0.113991,0.06101 -2.679785,0.09559 -7.091815,0.09559 H 8.850878 L 8.615564,28.908758 c -0.311319,-0.311318 -0.311319,-0.751952 0,-1.06327 l 0.235314,-0.235314 h 6.55973 6.559729 l 0.128324,-0.311573 c 0.07058,-0.171366 0.474866,-0.660961 0.898416,-1.087991 1.208659,-1.218588 2.503502,-1.739576 4.077561,-1.640633 1.722543,0.108278 3.237736,1.008014 4.209615,2.49971 1.550396,2.37964 0.951646,5.419174 -1.409674,7.15617 -1.645165,1.21019 -3.59309,1.374459 -5.484264,0.462489 -0.703527,-0.339258 -2.072311,-1.632334 -2.291654,-2.164904 L 21.970337,32.211869 H 13.68933 c -4.554554,0 -8.281008,0.02603 -8.281008,0.05785 0,0.137181 1.308939,1.60974 2.100177,2.362706 1.510679,1.437608 2.935985,2.422183 4.82279,3.331497 6.10196,2.940739 13.353217,2.432805 19.02036,-1.332329 4.492933,-2.985013 7.509041,-7.82226 8.236702,-13.210058 0.202829,-1.501802 0.211826,-1.53849 0.430994,-1.757659 0.245314,-0.245314 0.672589,-0.241264 0.991253,0.0094 0.220005,0.173057 0.252551,0.268929 0.252215,0.742983 -4.79e-4,0.732847 -0.233946,2.137285 -0.56936,3.425604 -2.168091,8.327615 -9.380733,14.543692 -17.953094,15.472528 -1.031119,0.111724 -3.208148,0.113665 -4.245966,0.0038 z M 1.729699,28.925435 C 1.318648,28.514384 0.52947,25.973282 0.160059,23.871294 0.040938,23.193479 0,22.384331 0,20.707629 0,18.362062 0.0902,17.517404 0.527192,15.770981 1.023908,13.785863 1.360325,13.240414 2.45356,12.647676 l 0.60598,-0.328555 9.805577,-0.02573 c 6.50254,-0.01706 9.866853,0.0071 9.987483,0.07162 0.10005,0.05354 0.335148,0.415955 0.522443,0.805357 0.418499,0.870092 1.146396,1.576314 1.950312,1.892233 0.77664,0.305201 2.142868,0.306784 2.91433,0.0034 1.508931,-0.593445 2.332296,-1.850839 2.332296,-3.561742 0,-1.710903 -0.823365,-2.968297 -2.332296,-3.561742 -0.771462,-0.303408 -2.13769,-0.301825 -2.91433,0.0034 -0.803916,0.315919 -1.531813,1.022141 -1.950312,1.892233 -0.187295,0.389402 -0.420911,0.75102 -0.519147,0.803594 -0.11399,0.06101 -2.679784,0.09559 -7.091814,0.09559 H 8.850878 L 8.615564,10.502019 c -0.311319,-0.311318 -0.311319,-0.751951 0,-1.063269 L 8.850878,9.203435 h 6.547558 6.547557 l 0.229362,-0.43235 c 0.32747,-0.617287 1.493806,-1.689354 2.226399,-2.046451 0.93978,-0.458089 1.717548,-0.621446 2.672884,-0.561395 2.135975,0.134265 3.942542,1.495202 4.770611,3.593833 0.223243,0.565781 0.254358,0.779711 0.254114,1.747211 -1.92e-4,0.930526 -0.03548,1.19221 -0.225958,1.677701 -0.842395,2.147092 -2.663128,3.537953 -4.798767,3.665789 -1.577985,0.09445 -2.870946,-0.426553 -4.077561,-1.643079 -0.42355,-0.42703 -0.827838,-0.916625 -0.898416,-1.08799 l -0.128324,-0.311573 -9.215727,0.0021 c -8.927331,0.002 -9.228607,0.0079 -9.627306,0.188902 -0.319959,0.145215 -0.453101,0.280666 -0.598111,0.608486 -0.252631,0.571113 -0.627459,2.014158 -0.825755,3.179056 -0.226263,1.329195 -0.226345,4.517968 -1.53e-4,5.847987 0.21066,1.238677 0.660743,2.928579 1.022598,3.839496 0.347099,0.873773 0.356149,1.131894 0.0504,1.437638 -0.304015,0.304015 -0.752115,0.311156 -1.046592,0.01668 z M 40.019345,19.751381 C 39.800177,19.532213 39.79118,19.495525 39.588351,17.993722 38.61891,10.815726 33.634363,4.8043081 26.782407,2.5496151 22.772409,1.2300922 18.543726,1.2252376 14.563778,2.5355881 10.905889,3.7399045 7.510792,6.217627 5.282568,9.308964 4.887353,9.857267 4.475094,10.402947 4.366438,10.521584 3.935622,10.991974 3.106029,10.639463 3.109174,9.987348 3.110474,9.71023 3.236032,9.460449 3.695837,8.819917 7.665863,3.2894602 13.957079,0 20.564258,0 c 8.635132,0 16.47631,5.453282 19.49791,13.560156 0.655504,1.758699 1.199785,4.224255 1.200645,5.438846 3.84e-4,0.474053 -0.03221,0.569926 -0.252215,0.742982 -0.318664,0.250661 -0.745939,0.254712 -0.991253,0.0094 z"
     id="path832"
  />
  <path

     id="path843"
     d="m 12.238584,25.890852 c -1.815656,-0.393188 -3.4255,-1.850465 -4.035792,-3.653318 -0.307848,-0.909405 -0.309658,-2.215614 -0.0043,-3.117295 0.547391,-1.616482 1.926031,-2.995122 3.542513,-3.542513 0.832963,-0.282067 2.208776,-0.301425 2.990185,-0.04207 1.293941,0.429465 2.67723,1.498926 3.158194,2.441692 l 0.201106,0.394201 h 9.915946 c 7.165509,0 9.98188,0.03004 10.15365,0.108305 0.532436,0.242594 0.532436,1.074694 0,1.317289 -0.171919,0.07833 -3.069322,0.108304 -10.469805,0.108304 -11.498505,0 -10.51276,0.06768 -10.861447,-0.745772 -0.624962,-1.457977 -1.943336,-2.322024 -3.542973,-2.322024 -2.29726,0 -3.940419,1.752632 -3.804516,4.057985 0.06681,1.133232 0.348116,1.794351 1.071172,2.517407 0.817577,0.817576 1.399519,1.039071 2.740646,1.043124 0.935904,0.0028 1.051912,-0.01841 1.651316,-0.302362 0.798526,-0.378278 1.414737,-0.996553 1.802043,-1.80808 0.160841,-0.337011 0.386761,-0.678814 0.502047,-0.759563 0.184492,-0.129223 1.251892,-0.146816 8.907814,-0.146816 6.260464,0 8.764823,0.03035 8.935909,0.108305 0.532436,0.242594 0.532436,1.074694 0,1.317289 -0.170792,0.07782 -2.590972,0.108648 -8.597732,0.109524 l -8.36003,0.0012 -0.33554,0.53786 c -0.709877,1.137908 -2.110188,2.091646 -3.499206,2.383274 -0.816256,0.171375 -1.248032,0.170126 -2.061176,-0.006 z"
     style="stroke: #1d2d32; stroke-width:.5"
     />
</svg>
